<?xml version="1.0" standalone="no"?>
<!DOCTYPE svg PUBLIC "-//W3C//DTD SVG 20010904//EN"
 "http://www.w3.org/TR/2001/REC-SVG-20010904/DTD/svg10.dtd">
<svg version="1.0" xmlns="http://www.w3.org/2000/svg"
 width="420.000000pt" height="71.000000pt" viewBox="0 0 420.000000 71.000000"
 preserveAspectRatio="xMidYMid meet">

<g transform="translate(0.000000,71.000000) scale(0.100000,-0.100000)"
fill="#000000" stroke="none">
<path d="M70 625 l0 -85 105 0 105 0 0 -35 0 -35 -140 0 -140 0 0 -90 0 -90
140 0 140 0 0 -50 c0 -45 -3 -52 -26 -60 -14 -6 -70 -10 -125 -10 l-99 0 0
-85 0 -85 131 0 c127 0 130 1 124 20 -14 44 39 65 83 34 19 -13 25 -14 39 -2
27 22 53 90 53 143 1 92 3 95 81 95 l69 0 0 90 0 90 -76 0 -75 0 3 33 c3 32 4
32 63 37 l60 5 1 83 1 82 -152 0 -152 0 -7 -31 c-4 -22 -10 -29 -23 -27 -18 4
-20 10 -8 41 7 15 -1 17 -84 17 l-91 0 0 -85z m160 60 c-17 -20 -5 -45 21 -45
14 0 24 10 32 30 l11 30 141 0 141 0 0 -75 0 -75 -63 0 -63 0 0 -45 0 -45 75
0 75 0 0 -75 0 -75 -69 0 c-78 0 -81 -3 -81 -95 0 -68 -15 -117 -43 -144 -21
-19 -25 -20 -37 -6 -28 34 -100 8 -100 -36 0 -18 -8 -19 -115 -19 l-115 0 0
75 0 75 104 0 c130 0 145 9 149 90 l2 55 -142 3 -143 3 0 74 0 75 146 0 145 0
-3 43 -3 42 -107 3 -108 3 0 74 0 75 81 0 c71 0 80 -2 69 -15z"/>
<path d="M1870 701 c0 -8 68 -201 110 -314 l22 -58 81 3 c75 3 82 5 79 23 -5
36 -75 227 -87 238 -7 6 -10 19 -8 28 3 9 -2 32 -11 52 l-15 37 -85 0 c-48 0
-86 -4 -86 -9z m175 -35 c8 -19 12 -42 9 -51 -4 -9 0 -21 9 -28 16 -12 87
-201 87 -231 0 -13 -12 -16 -70 -16 -64 0 -71 2 -80 23 -12 28 -120 329 -120
333 0 2 34 4 76 4 l75 0 14 -34z"/>
<path d="M2260 495 c0 -256 -5 -275 -76 -306 -44 -20 -77 -21 -184 -7 -25 3
-25 3 -28 -90 l-3 -94 138 4 c117 3 144 7 178 25 54 29 99 78 127 138 22 47
23 64 26 298 l4 247 -91 0 -91 0 0 -215z m168 -37 c-4 -273 -9 -299 -82 -371
-63 -63 -87 -71 -227 -75 l-126 -4 -6 54 c-4 29 -7 68 -7 87 0 30 2 33 23 26
41 -14 123 -17 163 -6 22 6 53 25 69 41 l30 31 6 227 c3 125 7 228 8 230 0 1
35 2 77 2 l76 0 -4 -242z"/>
<path d="M2370 265 c0 -14 4 -25 9 -25 12 0 19 21 13 38 -8 21 -22 13 -22 -13z"/>
<path d="M1240 629 c0 -22 5 -50 11 -61 8 -15 8 -22 -1 -28 -7 -5 -10 -15 -7
-24 5 -14 27 -16 147 -16 l140 0 0 85 0 85 -145 0 -145 0 0 -41z m280 -44 l0
-75 -135 0 c-74 0 -135 4 -135 8 0 4 5 13 11 19 8 8 8 17 0 31 -6 11 -11 37
-11 56 l0 36 135 0 135 0 0 -75z"/>
<path d="M2940 586 l0 -86 205 0 205 0 0 -45 c0 -54 8 -52 -189 -59 -79 -3
-146 -8 -148 -10 -9 -9 87 -144 106 -149 15 -4 21 -13 21 -34 0 -32 25 -84 46
-96 8 -4 14 -14 14 -22 0 -8 8 -30 17 -50 l17 -35 95 2 96 2 -91 3 c-87 4 -91
5 -107 32 -9 16 -17 35 -17 42 0 7 -11 24 -24 38 -15 16 -27 44 -31 71 -8 54
-11 60 -33 60 -16 0 -99 117 -89 126 2 2 69 7 148 10 79 4 152 11 162 16 13 6
17 21 17 58 l0 50 -205 0 -205 0 0 75 0 75 135 0 c104 0 143 -4 166 -16 28
-14 33 -14 54 0 18 12 50 16 120 16 l95 0 0 -153 c0 -129 -3 -158 -19 -187
-26 -50 -71 -77 -140 -85 l-58 -7 66 -113 c36 -62 68 -111 70 -109 3 3 -69
134 -106 190 -13 21 -12 22 48 33 45 8 71 18 92 38 53 51 57 68 57 243 l0 160
-104 0 c-65 0 -107 -4 -112 -11 -4 -7 -20 -8 -43 -4 -20 4 -102 9 -183 12
l-148 4 0 -85z"/>
<path d="M3640 585 l0 -85 145 0 145 0 0 85 0 85 -90 0 c-74 0 -91 -3 -100
-17 -10 -17 -10 -17 -20 0 -7 11 -23 17 -45 17 l-35 0 0 -85z m76 58 c13 -17
15 -17 28 0 11 14 29 17 95 17 l81 0 0 -75 0 -75 -135 0 -135 0 0 75 c0 74 0
75 26 75 15 0 33 -8 40 -17z"/>
<path d="M1630 412 c0 -190 -2 -210 -18 -225 -16 -15 -45 -17 -195 -17 l-177
0 0 -85 0 -85 214 0 c128 0 226 4 243 11 61 23 112 100 113 169 0 32 -4 37
-36 49 -31 11 -35 16 -32 44 2 26 9 34 36 42 l32 9 0 75 c0 56 -4 79 -17 94
-17 18 -17 19 0 28 12 7 17 23 17 54 l0 45 -90 0 -90 0 0 -208z m170 163 c0
-22 -6 -38 -15 -41 -8 -4 -15 -14 -15 -24 0 -10 7 -20 15 -24 11 -4 15 -23 15
-78 0 -72 -1 -73 -33 -88 -27 -13 -32 -20 -32 -50 0 -30 5 -37 34 -50 32 -14
33 -16 27 -57 -8 -58 -29 -97 -68 -125 -32 -22 -41 -23 -255 -26 l-223 -3 0
75 0 76 177 0 c150 0 179 2 195 17 16 15 18 35 18 225 l0 208 80 0 80 0 0 -35z"/>
<path d="M4030 513 c-1 -60 -4 -157 -8 -218 l-7 -110 -30 -6 c-16 -4 -101 -7
-187 -8 l-158 -1 0 -85 0 -85 209 0 c124 0 221 4 238 11 30 11 93 67 93 82 0
5 -11 22 -25 39 -20 23 -23 33 -15 49 6 11 21 19 35 19 24 0 25 3 25 55 0 39
-4 56 -16 63 -14 8 -14 10 0 21 13 11 16 38 16 147 l0 134 -85 0 -85 0 0 -107z
m160 -29 c0 -100 -3 -129 -15 -141 -14 -14 -14 -17 0 -32 8 -10 15 -36 15 -59
0 -37 -3 -42 -23 -42 -16 0 -28 -9 -35 -25 -16 -34 -16 -32 14 -60 31 -29 28
-44 -22 -81 l-37 -29 -219 -3 -218 -3 0 75 0 74 173 4 c120 2 179 7 189 16 11
9 17 48 23 160 4 81 7 175 6 210 l-2 62 75 0 76 0 0 -126z"/>
<path d="M3065 550 c3 -5 8 -10 11 -10 2 0 4 5 4 10 0 6 -5 10 -11 10 -5 0 -7
-4 -4 -10z"/>
<path d="M710 395 l0 -85 65 0 65 0 0 -69 c0 -67 -1 -69 -28 -74 -15 -3 -47
-3 -70 0 l-42 6 0 -87 0 -86 218 2 217 3 0 80 0 80 -67 3 -68 3 0 69 0 70 65
0 65 0 0 85 0 85 -210 0 -210 0 0 -85z m410 0 l0 -75 -65 0 -66 0 3 -77 3 -78
65 -5 65 -5 0 -70 0 -70 -207 -3 -208 -2 0 74 0 74 58 -1 c31 -1 63 2 70 6 8
5 12 34 12 83 l0 74 -65 0 -65 0 0 75 0 75 200 0 200 0 0 -75z"/>
<path d="M2530 395 l0 -85 175 0 175 0 0 85 0 85 -175 0 -175 0 0 -85z m335 0
l0 -70 -162 -3 -163 -2 0 75 0 75 163 -2 162 -3 0 -70z"/>
<path d="M3180 170 c0 -5 5 -10 10 -10 6 0 10 5 10 10 0 6 -4 10 -10 10 -5 0
-10 -4 -10 -10z"/>
</g>
</svg>
